name GIL02_fast3.mot
datacolumns 153
datarows 4
range 0.09166665 0.11666664
endheader

                time	           pelvis_tx	           pelvis_ty	           pelvis_tz	         pelvis_tilt	         pelvis_list	     pelvis_rotation	       hip_flexion_r	     hip_adduction_r	      hip_rotation_r	        knee_angle_r	       ankle_angle_r	    subtalar_angle_r	         mtp_angle_r	       hip_flexion_l	     hip_adduction_l	      hip_rotation_l	        knee_angle_l	       ankle_angle_l	    subtalar_angle_l	         mtp_angle_l	    lumbar_extension	      lumbar_bending	     lumbar_rotation	     ground_force_vx	     ground_force_vy	     ground_force_vz	     ground_force_px	     ground_force_py	     ground_force_pz	     ground_force_vx	     ground_force_vy	     ground_force_vz	     ground_force_px	     ground_force_py	     ground_force_pz	     ground_torque_x	     ground_torque_y	     ground_torque_z	     ground_torque_x	     ground_torque_y	     ground_torque_z	    ground_marker_px	    ground_marker_py	    ground_marker_pz	    ground_marker_px	    ground_marker_py	    ground_marker_pz	    ground_marker_px	    ground_marker_py	    ground_marker_pz	    ground_marker_px	    ground_marker_py	    ground_marker_pz	    ground_marker_px	    ground_marker_py	    ground_marker_pz	    ground_marker_px	    ground_marker_py	    ground_marker_pz	    ground_marker_px	    ground_marker_py	    ground_marker_pz	    ground_marker_px	    ground_marker_py	    ground_marker_pz	    ground_marker_px	    ground_marker_py	    ground_marker_pz	    ground_marker_px	    ground_marker_py	    ground_marker_pz	    ground_marker_px	    ground_marker_py	    ground_marker_pz	    ground_marker_px	    ground_marker_py	    ground_marker_pz	    ground_marker_px	    ground_marker_py	    ground_marker_pz	    ground_marker_px	    ground_marker_py	    ground_marker_pz	    ground_marker_px	    ground_marker_py	    ground_marker_pz	    ground_marker_px	    ground_marker_py	    ground_marker_pz	    ground_marker_px	    ground_marker_py	    ground_marker_pz	    ground_marker_px	    ground_marker_py	    ground_marker_pz	    ground_marker_px	    ground_marker_py	    ground_marker_pz	    ground_marker_px	    ground_marker_py	    ground_marker_pz	    ground_marker_px	    ground_marker_py	    ground_marker_pz	    ground_marker_px	    ground_marker_py	    ground_marker_pz	    ground_marker_px	    ground_marker_py	    ground_marker_pz	    ground_marker_px	    ground_marker_py	    ground_marker_pz	    ground_marker_px	    ground_marker_py	    ground_marker_pz	    ground_marker_px	    ground_marker_py	    ground_marker_pz	    ground_marker_px	    ground_marker_py	    ground_marker_pz	    ground_marker_px	    ground_marker_py	    ground_marker_pz	    ground_marker_px	    ground_marker_py	    ground_marker_pz	    ground_marker_px	    ground_marker_py	    ground_marker_pz	    ground_marker_px	    ground_marker_py	    ground_marker_pz	    ground_marker_px	    ground_marker_py	    ground_marker_pz	    ground_marker_px	    ground_marker_py	    ground_marker_pz	    ground_marker_px	    ground_marker_py	    ground_marker_pz	    ground_marker_px	    ground_marker_py	    ground_marker_pz	    ground_marker_px	    ground_marker_py	    ground_marker_pz	    ground_marker_px	    ground_marker_py	    ground_marker_pz	
          0.09166665	          0.54650998	          0.94329685	         -0.19512352	          0.60472393	         -2.90895987	          3.27750254	         21.26150894	          1.97507620	          2.72813296	        -16.70220566	         -4.07217646	          0.00000000	          0.00000000	         -7.70814371	         -4.26503325	         -5.39559460	        -41.00791168	        -36.76473618	          0.00000000	          0.00000000	         -6.22308636	          8.54343891	         -9.44313145	       -127.40398709	        670.69938399	        -18.84961500	          0.66548468	          0.00000000	         -0.14532031	          0.00000000	          0.00000000	          0.00000000	          1.40737268	          0.00000000	         -0.21476926	          0.00000000	          1.12665417	          0.00000000	          0.00000000	          0.00000000	          0.00000000	          0.46920648	          0.87865347	         -0.18335073	          0.46616843	          0.85867822	         -0.11110941	          0.45623174	          0.85290599	         -0.26109919	          0.61946577	          0.47263187	         -0.12077007	          0.40260756	          0.43803969	         -0.27279463	          0.65085244	          0.06883760	         -0.15155032	          0.10658607	          0.17419122	         -0.25885567	          0.54650998	          0.94329685	         -0.19512352	          0.55420464	          0.94776666	         -0.07897563	          0.53881526	          0.93882704	         -0.31127140	          0.36286411	          0.98145878	         -0.14740548	          0.36318332	          0.97959924	         -0.23317263	          0.62665004	          0.47403228	         -0.06272978	          0.39393452	          0.44077560	         -0.33007720	          0.59454519	          0.46306890	         -0.17756470	          0.41330430	          0.40732902	         -0.21707205	          0.64169043	          0.06517060	         -0.11278679	          0.08890657	          0.19246420	         -0.28842816	          0.65678704	          0.08594792	         -0.17925267	          0.12095247	          0.17595842	         -0.23369406	          0.35877809	          1.40204334	         -0.17640939	          0.48614672	          1.32791531	         -0.11706105	          0.49821463	          1.33795035	         -0.22376694	          0.47442779	          1.33976460	         -0.16914029	          0.56453675	          1.18106735	         -0.18543892	          0.63543987	          0.56966889	          0.01395380	          0.56781983	          0.48945996	         -0.31114608	          0.62612063	          0.64065152	         -0.04591431	          0.49888408	          0.55617839	         -0.32718921	          0.64881253	          0.55920273	         -0.07676017	          0.46519718	          0.47410718	         -0.32288793	          0.65761644	          0.19417180	         -0.01833529	          0.19266626	          0.28035212	         -0.37922508	          0.64158565	          0.16458820	         -0.09196670	          0.16435416	          0.25353768	         -0.30750009	          0.77350658	          0.04131366	         -0.14429384	          0.10463557	          0.05228129	         -0.25264430	
          0.09999998	          0.56018627	          0.94405460	         -0.19408065	          0.46990681	         -3.36046124	          3.18112969	         20.67816544	          2.62815690	          3.05446482	        -16.95250320	         -3.13766456	          0.00000000	          0.00000000	         -5.99072695	         -4.94918156	         -5.85898447	        -43.77394867	        -37.23593903	          0.00000000	          0.00000000	         -6.00687265	          8.78100681	         -9.40340710	       -124.96174526	        693.59527794	        -21.86831197	          0.66683386	          0.00000000	         -0.14502531	          0.00000000	          0.00000000	          0.00000000	          1.40870325	          0.00000000	         -0.21372437	          0.00000000	          1.15421692	          0.00000000	          0.00000000	          0.00000000	          0.00000000	          0.48166591	          0.87941802	         -0.18202111	          0.47964770	          0.86029750	         -0.10939470	          0.46970865	          0.85333949	         -0.25933400	          0.62752521	          0.47289479	         -0.12030244	          0.42721730	          0.43683156	         -0.27344736	          0.65146542	          0.06869839	         -0.15179659	          0.12597775	          0.17968658	         -0.25946420	          0.56018627	          0.94405460	         -0.19408065	          0.56787717	          0.94943869	         -0.07805695	          0.55249542	          0.93867046	         -0.31010437	          0.37617123	          0.98320866	         -0.14777304	          0.37662929	          0.98029625	         -0.23352537	          0.63524592	          0.47420961	         -0.06232906	          0.41801745	          0.43970814	         -0.33064076	          0.60295963	          0.46427834	         -0.17770113	          0.44065499	          0.40507245	         -0.21703042	          0.64229548	          0.06513429	         -0.11302534	          0.10881077	          0.19818026	         -0.28920102	          0.65698695	          0.08593582	         -0.17940873	          0.13952789	          0.18149804	         -0.23424135	          0.37154675	          1.40286839	         -0.17446023	          0.49952406	          1.32914960	         -0.11601425	          0.51156271	          1.33883381	         -0.22297624	          0.48750031	          1.34082866	         -0.16818196	          0.57819098	          1.18221343	         -0.18398321	          0.64592785	          0.57001477	          0.01439187	          0.59065449	          0.49156812	         -0.31281495	          0.63680023	          0.64112854	         -0.04531101	          0.51953232	          0.55662590	         -0.32809898	          0.65873718	          0.55927885	         -0.07687289	          0.48897359	          0.47384241	         -0.32344711	          0.66073167	          0.19356643	         -0.01835435	          0.21446858	          0.28311029	         -0.37990817	          0.64459795	          0.16445822	         -0.09188002	          0.18577136	          0.25680387	         -0.30799615	          0.77399719	          0.04087700	         -0.14457856	          0.11977967	          0.05710770	         -0.25418615	
          0.10833331	          0.57352436	          0.94474757	         -0.19320045	          0.36835861	         -3.72878456	          3.13901591	         20.01591492	          3.16230512	          3.35473919	        -17.10638046	         -2.21790624	          0.00000000	          0.00000000	         -4.23809767	         -5.47801542	         -5.89932203	        -46.53953934	        -36.31642914	          0.00000000	          0.00000000	         -6.01898956	          9.29196739	         -9.17470551	       -120.07037232	        714.33883258	        -24.69863452	          0.66868744	          0.00000000	         -0.14460291	          0.00000000	          0.00000000	          0.00000000	          1.41005847	          0.00000000	         -0.21261542	          0.00000000	          1.11830786	          0.00000000	          0.00000000	          0.00000000	          0.00000000	          0.49427104	          0.87988240	         -0.18131045	          0.49289027	          0.86167729	         -0.10793081	          0.48285264	          0.85377038	         -0.25781646	          0.63502574	          0.47300440	         -0.11986788	          0.45207560	          0.43603757	         -0.27387980	          0.65193188	          0.06858248	         -0.15192518	          0.14616781	          0.18531428	         -0.25966978	          0.57352436	          0.94474757	         -0.19320045	          0.58129662	          0.95086998	         -0.07714132	          0.56575203	          0.93862510	         -0.30925959	          0.38920888	          0.98473966	         -0.14802296	          0.38979498	          0.98082268	         -0.23376898	          0.64323795	          0.47422907	         -0.06196012	          0.44268009	          0.43892783	         -0.33104071	          0.61609954	          0.46639168	         -0.18106073	          0.46794704	          0.40248272	         -0.21759970	          0.64270061	          0.06512369	         -0.11315893	          0.12958086	          0.20384958	         -0.28970835	          0.65731359	          0.08569010	         -0.17957911	          0.15935691	          0.18789040	         -0.23425573	          0.38472959	          1.40404844	         -0.17277646	          0.51265770	          1.32991493	         -0.11534885	          0.52436066	          1.33990586	         -0.22266921	          0.50048488	          1.34183693	         -0.16734912	          0.59070420	          1.18298495	         -0.18420117	          0.65584290	          0.57013953	          0.01477580	          0.61380297	          0.49437845	         -0.31335944	          0.64715880	          0.64141673	         -0.04457571	          0.54083234	          0.55734110	         -0.32820359	          0.67032248	          0.55908900	         -0.07801144	          0.51349479	          0.47342288	         -0.32381293	          0.66336608	          0.19296509	         -0.01834594	          0.23736303	          0.28566393	         -0.38040060	          0.64662689	          0.16442934	         -0.09209763	          0.20776939	          0.26116368	         -0.30864075	          0.77433193	          0.04057742	         -0.14479837	          0.13796958	          0.06221134	         -0.25627938	
          0.11666664	          0.58654308	          0.94542551	         -0.19249398	          0.30644989	         -3.99021840	          3.14798689	         19.27899551	          3.55750728	          3.62220144	        -17.19308472	         -1.31698036	          0.00000000	          0.00000000	         -2.47567749	         -5.81489658	         -5.56400919	        -49.23170471	        -34.34997940	          0.00000000	          0.00000000	         -6.11487198	          9.71346664	         -8.46231174	       -113.38240466	        728.14508731	        -26.85569464	          0.67123322	          0.00000000	         -0.14401459	          0.00000000	          0.00000000	          0.00000000	          1.41146680	          0.00000000	         -0.21144949	          0.00000000	          1.07145728	          0.00000000	          0.00000000	          0.00000000	          0.00000000	          0.50649488	          0.88001847	         -0.18020304	          0.50591058	          0.86282259	         -0.10677008	          0.49570280	          0.85426176	         -0.25660831	          0.64207357	          0.47300962	         -0.11950930	          0.47707829	          0.43575832	         -0.27407598	          0.65226382	          0.06849979	         -0.15195478	          0.16724043	          0.19084078	         -0.25955874	          0.58654308	          0.94542551	         -0.19249398	          0.59446251	          0.95206720	         -0.07624564	          0.57862359	          0.93878382	         -0.30874231	          0.40204644	          0.98607236	         -0.14807890	          0.40270850	          0.98123258	         -0.23382811	          0.65071332	          0.47413704	         -0.06166180	          0.46779537	          0.43855819	         -0.33125979	          0.61797762	          0.46601576	         -0.17687076	          0.49329874	          0.40078196	         -0.21886785	          0.64296395	          0.06515659	         -0.11319481	          0.15123618	          0.20928484	         -0.28996733	          0.65792477	          0.08511660	         -0.17979318	          0.18106119	          0.19411927	         -0.23396109	          0.39797118	          1.40525115	         -0.17118077	          0.52586460	          1.33038783	         -0.11467275	          0.53625721	          1.34081089	         -0.22230241	          0.51337087	          1.34283578	         -0.16664502	          0.60238701	          1.18342888	         -0.18525015	          0.66523021	          0.57007772	          0.01508894	          0.63718337	          0.49791849	         -0.31286773	          0.65798962	          0.64112878	         -0.04414802	          0.56296176	          0.55867308	         -0.32756838	          0.67710871	          0.55902934	         -0.07591905	          0.53781641	          0.47360301	         -0.32407314	          0.66571450	          0.19236587	         -0.01834351	          0.26116458	          0.28810167	         -0.38069087	          0.64845651	          0.16435745	         -0.09236069	          0.23023567	          0.26608312	         -0.30926371	          0.77455831	          0.04037329	         -0.14494863	          0.15906958	          0.06729917	         -0.25881299	
